<?xml version="1.0" encoding="UTF-8" standalone="no"?>
<!-- Created with Inkscape (http://www.inkscape.org/) -->

<svg
   xmlns:dc="http://purl.org/dc/elements/1.1/"
   xmlns:cc="http://creativecommons.org/ns#"
   xmlns:rdf="http://www.w3.org/1999/02/22-rdf-syntax-ns#"
   xmlns:svg="http://www.w3.org/2000/svg"
   xmlns="http://www.w3.org/2000/svg"
   xmlns:sodipodi="http://sodipodi.sourceforge.net/DTD/sodipodi-0.dtd"
   xmlns:inkscape="http://www.inkscape.org/namespaces/inkscape"
   id="svg4146"
   version="1.1"
   inkscape:version="0.91 r13725"
   width="93.75"
   height="111.25"
   viewBox="0 0 93.75 111.25"
   sodipodi:docname="OLMEC3.svg">
  <metadata
     id="metadata4152">
    <rdf:RDF>
      <cc:Work
         rdf:about="">
        <dc:format>image/svg+xml</dc:format>
        <dc:type
           rdf:resource="http://purl.org/dc/dcmitype/StillImage" />
        <dc:title />
      </cc:Work>
    </rdf:RDF>
  </metadata>
  <defs
     id="defs4150" />
  <sodipodi:namedview
     pagecolor="#ffffff"
     bordercolor="#666666"
     borderopacity="1"
     objecttolerance="10"
     gridtolerance="10"
     guidetolerance="10"
     inkscape:pageopacity="0"
     inkscape:pageshadow="2"
     inkscape:window-width="1721"
     inkscape:window-height="1007"
     id="namedview4148"
     showgrid="false"
     inkscape:zoom="7.49"
     inkscape:cx="40.555453"
     inkscape:cy="56.684334"
     inkscape:window-x="111"
     inkscape:window-y="39"
     inkscape:window-maximized="0"
     inkscape:current-layer="layer1" />
  <g
     inkscape:groupmode="layer"
     id="layer1"
     inkscape:label="Gray"
     style="display:inline"
     sodipodi:insensitive="true">
    <path
       style="fill:#cccccc;fill-opacity:1;fill-rule:evenodd;stroke:none;stroke-width:1px;stroke-linecap:butt;stroke-linejoin:miter;stroke-opacity:1"
       d="m 13.547978,56.721948 -0.583326,-5.833256 c 0,0 3.708285,0.124998 5.999921,0.08333 2.291637,-0.04167 9.583207,-0.458328 10.874857,-0.499994 1.29165,-0.04167 3.374956,0.08333 4.124946,0.291663 0.74999,0.208331 1.208317,0.208331 1.208317,0.208331 0,0 -1.249983,3.208291 -1.874975,3.666618 -0.624992,0.458327 -1.249984,-0.08333 -2.083306,-0.249997 -0.833322,-0.166664 -2.24997,-0.249996 -2.79163,-0.08333 -0.541659,0.166665 -12.374837,1.124985 -14.874804,2.416635 z"
       id="path4136"
       inkscape:connector-curvature="0" />
    <path
       style="fill:#cccccc;fill-opacity:1;fill-rule:evenodd;stroke:none;stroke-width:1px;stroke-linecap:butt;stroke-linejoin:miter;stroke-opacity:1"
       d="m 10.506351,95.929765 c 0,0 3.248359,0.165062 5.958255,-0.374995 0,0 0.999987,1.458314 1.749977,2.124972 0.74999,0.666658 4.541607,2.791638 5.249931,3.208298 0.708324,0.41666 1.29165,4.24994 2.124972,5.1666 0.714568,0.78602 -9.583208,-4.20828 -9.583208,-4.20828 0,0 -5.24993,-4.583279 -5.333262,-4.749944 -0.08333,-0.166664 -0.166665,-1.166651 -0.166665,-1.166651 z"
       id="path4153"
       inkscape:connector-curvature="0"
       sodipodi:nodetypes="csssscsc" />
    <path
       style="fill:#cccccc;fill-opacity:1;fill-rule:evenodd;stroke:none;stroke-width:1px;stroke-linecap:butt;stroke-linejoin:miter;stroke-opacity:1"
       d="m 35.256025,108.17961 c 1.791644,-0.54166 6.12492,-3.62495 6.666579,-4.29161 0.54166,-0.66666 4.583273,-1.04166 6.083254,-0.95832 1.49998,0.0833 4.624939,-0.33333 5.416595,0.0417 0.791656,0.375 5.208265,3.95828 6.374916,4.41661 1.166651,0.45833 0.958321,1.20832 0.958321,1.20832 l -4.874936,0.95828 -7.041574,0.33333 -6.999908,-0.0417 -3.874949,-0.79165 z"
       id="path3337"
       inkscape:connector-curvature="0" />
    <path
       style="fill:#cccccc;fill-opacity:1;fill-rule:evenodd;stroke:none;stroke-width:1px;stroke-linecap:butt;stroke-linejoin:miter;stroke-opacity:1"
       d="m 83.239522,64.678608 c 0,0 -0.58927,14.49617 -0.58927,15.497938 0,1.001768 -0.47142,6.4231 -2.062464,9.310548 -1.440762,2.091051 -2.73342,4.234582 -4.596347,6.187387 -0.895492,0.63211 -3.830288,3.358869 -3.830288,3.358869 0,0 0,0.05893 -0.353566,0.05893 -0.353565,0 -0.589272,-0.589276 -0.648202,-1.414261 -0.05893,-0.824985 -1.001768,-7.483795 -1.532116,-9.605185 -0.530347,-2.121391 -2.828521,-6.835593 -3.653506,-8.426636 -0.824985,-1.591043 -2.416028,-3.712433 -3.417796,-4.596346 -1.001768,-0.883913 -2.239246,-0.530348 -2.828521,-0.176783 -0.589275,0.353565 -0.352555,1.237111 0.117855,2.533884 0.469327,1.293789 1.556308,2.46234 2.769594,4.360636 1.078988,1.688176 1.695685,3.857129 2.12139,4.890984 0.824985,2.003535 2.121391,5.95168 2.651738,9.310548 0.530348,3.358869 0.648203,10.489099 0.648203,10.489099 l 3.653506,-1.06069 5.48026,-2.53389 5.06777,-3.594578 2.3571,-4.183854 1.76782,-5.303476 0.88392,-4.124927 -0.17679,-9.95875 0.29464,-8.839128 -0.0589,-16.028286 -0.0589,-12.669416 -0.23571,-6.953447 -2.12139,-1.944609 -1.53212,0 0.11786,23.394226 -0.17678,9.25162 z"
       id="path4141"
       inkscape:connector-curvature="0"
       sodipodi:nodetypes="csccsssssscscsscccccccccccccccc" />
    <path
       style="fill:#cccccc;fill-opacity:1;fill-rule:evenodd;stroke:none;stroke-width:1px;stroke-linecap:butt;stroke-linejoin:miter;stroke-opacity:1"
       d="m 33.943479,90.425058 2.941376,0.70593 6.353372,-0.117655 8.471162,0.05883 7.000475,0.176482 c 0,0 -2.176618,-2.58841 -3.059031,-2.941376 -0.882413,-0.352965 -9.47123,-0.294137 -9.47123,-0.294137 0,0 -7.471095,-0.352965 -8.471163,0.05883 -1.000068,0.411793 -3.764961,2.353101 -3.764961,2.353101 z"
       id="path4222"
       inkscape:connector-curvature="0" />
    <path
       style="fill:#cccccc;fill-opacity:1;fill-rule:evenodd;stroke:none;stroke-width:1px;stroke-linecap:butt;stroke-linejoin:miter;stroke-opacity:1"
       d="m 47.532636,72.541492 4.353236,-1.705998 3.470824,0.70593 c 0,0 0.588275,-1.529515 0.588275,-2.058963 0,-0.529447 -0.176483,-1.88248 -0.647103,-2.588411 -0.47062,-0.70593 -2.058963,-0.88241 -2.588411,-0.94124 -0.529447,-0.05883 -2.000135,-0.176482 -2.470756,-0.352965 -0.47062,-0.176483 -0.882412,-0.94124 -1.41186,-1.294205 -0.529448,-0.352966 -3.059031,-0.764758 -4.588547,-0.529448 -1.529515,0.23531 -2.470755,1.117723 -2.764893,1.64717 -0.384531,0.317173 -1.676137,0.44378 -2.176618,0.588276 -0.47062,0.23531 -1.941308,0.764757 -2.411928,1.470688 -0.470618,0.70593 -0.411793,1.64717 -0.529448,3.411996 l 0.94124,1.41186 2.529584,-0.882413 2.58841,0.470621 2.588411,0.764757 z"
       id="path4226"
       inkscape:connector-curvature="0"
       sodipodi:nodetypes="cccssssssccscccccc" />
    <path
       style="fill:#cccccc;fill-opacity:1;fill-rule:evenodd;stroke:none;stroke-width:1px;stroke-linecap:butt;stroke-linejoin:miter;stroke-opacity:1"
       d="m 58.003934,48.951657 c 0.989015,0.764546 1.374523,1.387798 2.058963,1.529516 l 1.235378,0.23531 c 0,0 6.235717,0.05883 7.941715,0.05883 1.705998,0 6.765165,0.411793 8.353508,0.05883 l 1.588343,-0.352965 c 0,0 0.647103,-0.05883 1.235378,0.23531 0.588275,0.294137 1.353033,0.94124 1.17655,1.529515 l -0.176482,0.588275 c 0,0 -0.764758,0.411793 -1.235378,0.411793 -0.47062,0 -1.882481,0.352965 -2.588411,0.117655 l -0.70593,-0.23531 -2.411929,-0.23531 -8.05937,0.05883 c 0,0 -1.17655,-0.176482 -2.647238,0.352966 -1.470688,0.529447 -2.882549,0.70593 -4.176754,0.294137 -1.294205,-0.411793 -2.706066,-2.000136 -2.823721,-2.588411 l -0.117655,-0.588275 c 0,0 -0.05883,-0.823585 0.176483,-1.235378 0.23531,-0.411792 0.94124,-0.294137 1.17655,-0.235318 z"
       id="path4228"
       inkscape:connector-curvature="0"
       sodipodi:nodetypes="cccsscsscsscccssscsc" />
    <path
       style="fill:#cccccc;fill-opacity:1;fill-rule:evenodd;stroke:none;stroke-width:1px;stroke-linecap:butt;stroke-linejoin:miter;stroke-opacity:1"
       d="m 33.825824,38.421531 c 0,0 -1.353033,-1.941308 -3.059031,-2.470756 -1.705998,-0.529447 -3.294341,-0.47062 -6.823993,-0.23531 -3.529651,0.23531 -4.588546,0.588275 -7.35344,0.70593 -2.764893,0.117656 -4.588546,-0.411792 -5.117994,-1.705998 -0.529447,-1.294205 0.23531,-2.823721 1.411861,-3.588478 1.17655,-0.764758 3.589989,-1.196714 5.588614,-1.294206 2.411929,-0.117653 6.653538,-0.210571 8.882955,0.05883 1.786778,0.215913 5.529787,1.117723 6.353373,1.588343 0.823585,0.47062 3.411996,2.294273 4.353236,2.882548 0.94124,0.588275 2.529583,1.764826 4.470891,1.705998 1.941309,-0.05883 7.11813,-0.94124 9.294748,-1.529515 2.176619,-0.588275 8.529991,-2.411928 10.824264,-2.764894 2.294273,-0.352965 8.000543,-1.000067 9.059438,-0.94124 1.058895,0.05883 5.588614,0.176483 6.64751,0.70593 1.058895,0.529448 2.470755,1.470688 2.529583,2.882549 0.05883,1.41186 -0.829601,1.832915 -2.000136,2.000135 -1.036264,0.0902 -2.916045,-1.258411 -4.059098,-1.88248 -0.882413,-0.588275 -2.647239,-0.588275 -5.176822,-0.117655 -2.529584,0.47062 -4.412064,1.058895 -6.529855,2.117791 -2.117791,1.058895 -5.059166,3.117858 -5.706269,3.470823 -0.647103,0.352965 -10.471299,-0.05883 -10.471299,-0.05883 z"
       id="path4230"
       inkscape:connector-curvature="0"
       sodipodi:nodetypes="csssssssssssssssccssscc" />
    <path
       style="fill:#cccccc;fill-opacity:1;fill-rule:evenodd;stroke:none;stroke-width:1px;stroke-linecap:butt;stroke-linejoin:miter;stroke-opacity:1"
       d="m 38.080203,84.941903 15.917935,0.102366 c 0,0 0,-0.972479 -1.074845,-1.228394 -1.074844,-0.255915 -7.114446,-0.358281 -8.138108,-0.358281 -1.023661,0 -4.657659,0 -5.374222,0.255915 -0.716563,0.255915 -1.33076,1.228394 -1.33076,1.228394 z"
       id="path4232"
       inkscape:connector-curvature="0" />
    <path
       style="fill:#cccccc;fill-opacity:1;fill-rule:evenodd;stroke:none;stroke-width:1px;stroke-linecap:butt;stroke-linejoin:miter;stroke-opacity:1"
       d="m 38.182569,82.024468 c 0,0 1.381943,-1.740225 2.456788,-1.791408 1.074844,-0.05118 2.968618,0.870112 2.968618,0.870112 l 2.354421,0.307099 2.763886,-0.563014 2.200872,-0.307098 1.996139,0.972478 1.023662,0.614197 c 0,0 0.563013,-1.433126 0.153549,-2.456788 -0.409465,-1.023661 -1.433126,-1.791407 -2.917435,-1.689041 -1.484309,0.102366 -3.633998,1.126028 -5.220673,1.126028 -1.586675,0 -3.480449,-1.535492 -5.527772,-1.177211 -2.047322,0.358282 -2.917434,2.252055 -2.917434,2.507971 -0.02108,0.887061 0.43099,1.265103 0.665379,1.586675 z"
       id="path4234"
       inkscape:connector-curvature="0"
       sodipodi:nodetypes="csccccccsssscc" />
  </g>
  <g
     inkscape:groupmode="layer"
     id="layer3"
     inkscape:label="Black"
     style="display:inline"
     sodipodi:insensitive="true">
    <path
       style="fill:#000000;fill-opacity:1;fill-rule:evenodd;stroke:none;stroke-width:1px;stroke-linecap:butt;stroke-linejoin:miter;stroke-opacity:1"
       d="m 34.106156,47.289018 c 0.0417,1.29165 -0.74999,1.83331 -1.33331,1.958308 -0.58333,0.124998 -15.79146,0.291663 -17.33311,0.124998 -1.54164,-0.166664 -3.45828,-2.458301 -3.45828,-2.458301 0,0 6.45824,-2.583299 8.54155,-2.916628 2.0833,-0.333329 6.95824,-0.249997 8.37489,0.08333 1.41665,0.333329 5.1666,1.708311 5.20826,3.208291 z"
       id="path4696"
       inkscape:connector-curvature="0" />
    <path
       style="fill:#000000;fill-opacity:1;fill-rule:evenodd;stroke:none;stroke-width:1px;stroke-linecap:butt;stroke-linejoin:miter;stroke-opacity:1"
       d="m 30.315092,52.872539 c 0,0 -1.29165,2.583299 -2.04164,3.458288 -0.74999,0.874988 -3.20829,2.958294 -4.6666,2.958294 -1.45832,0 -3.24996,-1.124985 -3.99995,-1.666644 -0.74999,-0.54166 -1.54165,-1.999974 -1.54165,-2.166639 0,-0.166664 3.24996,-0.124998 6.41658,-0.95832 3.16663,-0.833323 4.37495,-0.999987 5.83326,-1.624979 z"
       id="path4134"
       inkscape:connector-curvature="0" />
    <path
       style="fill:none;fill-rule:evenodd;stroke:#000000;stroke-width:2;stroke-linecap:butt;stroke-linejoin:miter;stroke-miterlimit:4;stroke-dasharray:none;stroke-opacity:1"
       d="m 87.67912,37.785716 c 0,0 0.25159,43.399277 0.25159,47.802103 0,4.402825 -2.01272,9.434625 -5.0318,13.963245 C 79.87983,104.07968 64.029658,110.49523 47.927898,110.11784 28.053757,111.48094 11.195756,97.789934 11.195756,97.789934 L 9.4346256,95.148239 C 7.6734954,92.506544 8.0508805,88.103719 8.0508805,88.103719 l -1.3837451,-52.204928 0,-2.138516 c 0,-8.679855 0.6173369,-19.115932 1.2579501,-22.517306 0.6406132,-3.4013742 0.341564,-4.6290813 2.3901055,-6.2897502 2.048541,-1.6606689 4.402825,-2.0127201 4.402825,-2.0127201 0,0 24.655821,-3.1448752 26.416951,-1.5095401 1.761131,1.6353351 6.163956,9.6862154 6.163956,9.6862154 C 49.721807,7.6372602 52.306645,1.6677458 53.966059,0.92777859 65.539199,0.17300854 79.12506,3.3178837 79.12506,3.3178837 c 0,0 5.090023,0.8927091 6.03816,3.0190802 2.785145,6.2462011 2.5159,31.4487521 2.5159,31.4487521 z"
       id="path4236"
       inkscape:connector-curvature="0"
       sodipodi:nodetypes="cscscsccszzsscccsc" />
    <path
       style="fill:none;fill-rule:evenodd;stroke:#000000;stroke-width:2;stroke-linecap:butt;stroke-linejoin:miter;stroke-miterlimit:4;stroke-dasharray:none;stroke-opacity:1"
       d="m 50.192208,5.8337839 -6.03816,-0.125795"
       id="path4238"
       inkscape:connector-curvature="0" />
    <path
       style="fill:none;fill-rule:evenodd;stroke:#000000;stroke-width:2;stroke-linecap:butt;stroke-linejoin:miter;stroke-miterlimit:4;stroke-dasharray:none;stroke-opacity:1"
       d="M 8.107907,88.298386 C 5.5183277,88.370578 4.7652602,87.50044 3.3678998,85.803646 2.5980723,84.868856 1.7856733,82.774789 1.5095401,79.423863 1.2334069,76.072937 1.3837451,43.069106 1.3837451,43.069106 c 0,0 -0.00212,-3.576694 1.3826871,-5.029684 1.3848031,-1.45299 4.0941045,-1.506904 4.0941045,-1.506904"
       id="path4242"
       inkscape:connector-curvature="0"
       sodipodi:nodetypes="cczczc" />
    <circle
       style="fill:none;fill-opacity:1;stroke:#000000;stroke-width:1.39999998;stroke-miterlimit:4;stroke-dasharray:none;stroke-opacity:1"
       id="path4244"
       cx="17.837395"
       cy="22.312496"
       r="1.9957925" />
    <circle
       style="display:inline;fill:none;fill-opacity:1;stroke:#000000;stroke-width:1.39999998;stroke-miterlimit:4;stroke-dasharray:none;stroke-opacity:1"
       id="path4244-1"
       cx="75.840111"
       cy="23.559866"
       r="1.9957925" />
    <path
       style="fill:none;fill-rule:evenodd;stroke:#000000;stroke-width:1.5;stroke-linecap:butt;stroke-linejoin:miter;stroke-miterlimit:4;stroke-dasharray:none;stroke-opacity:1"
       d="m 87.690133,31.168826 c -1.248729,-1.051561 -2.442567,-2.177238 -3.866848,-2.993689 -1.871056,-0.748422 -8.856329,-0.374211 -8.856329,-0.374211 l -29.812151,0 -29.687413,-0.623685 c 0,0 -3.118426,-0.249474 -5.6131666,0.124737 -1.8294482,0.293711 -2.1116716,0.486768 -3.1184257,1.871056"
       id="path4261"
       inkscape:connector-curvature="0"
       sodipodi:nodetypes="ccccccc" />
    <path
       style="display:inline;fill:none;fill-rule:evenodd;stroke:#000000;stroke-width:2;stroke-linecap:butt;stroke-linejoin:miter;stroke-miterlimit:4;stroke-dasharray:none;stroke-opacity:1"
       d="m 87.912118,36.597459 c 2.589579,-0.07219 2.843699,-0.19995 4.241059,1.496844 0.769829,0.93479 0.709069,7.020442 0.735728,10.496105 0.02666,3.475663 0.0011,20.63789 0.0011,20.63789 0,0 0.126837,14.553554 -1.008476,15.632333 -1.135313,1.078778 -4.218842,1.257429 -4.218842,1.257429"
       id="path4242-7"
       inkscape:connector-curvature="0"
       sodipodi:nodetypes="cczczc" />
    <path
       style="fill:none;fill-rule:evenodd;stroke:#000000;stroke-width:2;stroke-linecap:butt;stroke-linejoin:miter;stroke-miterlimit:4;stroke-dasharray:none;stroke-opacity:1"
       d="m 6.4863256,33.414093 c 0,0 -2.1205295,0.997896 -3.2431628,-0.374211 -0.8899659,-1.22114 -0.6236852,-4.740008 -0.6236852,-4.740008 0.075101,-2.008254 0.057302,-3.337069 0.9978963,-4.61527 0.8731592,-0.997896 3.2431628,-0.124737 3.2431628,-0.124737"
       id="path4278"
       inkscape:connector-curvature="0"
       sodipodi:nodetypes="ccccc" />
    <path
       style="display:inline;fill:none;fill-rule:evenodd;stroke:#000000;stroke-width:2;stroke-linecap:butt;stroke-linejoin:miter;stroke-miterlimit:4;stroke-dasharray:none;stroke-opacity:1"
       d="m 87.87388,25.498739 c 0,0 2.993689,-0.498948 4.116322,0.873159 0.889966,1.221141 0.623685,3.991587 0.623685,3.991587 0,0 0.441648,2.46391 -0.498948,3.742111 -0.873159,0.997896 -3.991585,0.374211 -3.991585,0.374211"
       id="path4278-1"
       inkscape:connector-curvature="0"
       sodipodi:nodetypes="ccccc" />
    <path
       style="fill:none;fill-rule:evenodd;stroke:#000000;stroke-width:1px;stroke-linecap:round;stroke-linejoin:miter;stroke-opacity:1"
       d="m 12.847914,40.898315 c 0,0 0.249474,0.498948 0.997896,0.498948 0.748423,0 11.600545,-0.873159 17.088974,0.124737 1.517832,0.168623 2.984486,1.460038 3.617374,3.243163"
       id="path4297"
       inkscape:connector-curvature="0"
       sodipodi:nodetypes="cscc" />
    <path
       style="display:inline;fill:#ff0000;fill-opacity:0;fill-rule:evenodd;stroke:none;stroke-width:1px;stroke-linecap:butt;stroke-linejoin:miter;stroke-opacity:1"
       d="m 34.132475,38.397703 c 0,0 -1.353033,-1.941308 -3.059031,-2.470756 -1.705998,-0.529447 -3.294341,-0.47062 -6.823993,-0.23531 -3.52965,0.23531 -4.588545,0.588275 -7.353439,0.70593 -2.764893,0.117656 -4.588546,-0.411792 -5.117994,-1.705998 -0.529447,-1.294205 0.23531,-2.823721 1.411861,-3.588478 1.17655,-0.764758 3.589989,-1.196714 5.588614,-1.294206 2.411929,-0.117653 6.653537,-0.210571 8.882954,0.05883 1.786778,0.215913 5.529787,1.117723 6.353373,1.588343 0.823585,0.47062 3.411996,2.294273 4.353236,2.882548 0.94124,0.588275 2.529583,1.764826 4.470891,1.705998 1.941309,-0.05883 7.11813,-0.94124 9.294747,-1.529515 2.17662,-0.588275 8.52999,-2.411928 10.82427,-2.764894 2.29427,-0.352965 8.00054,-1.000067 9.05943,-0.94124 1.0589,0.05883 5.58862,0.176483 6.64751,0.70593 1.0589,0.529448 2.47076,1.470688 2.52959,2.882549 0.0588,1.41186 -0.8296,1.832915 -2.00014,2.000135 -1.03626,0.0902 -2.91604,-1.258411 -4.0591,-1.88248 -0.88241,-0.588275 -2.64724,-0.588275 -5.17682,-0.117655 -2.52958,0.47062 -4.41206,1.058895 -6.52985,2.117791 -2.1178,1.058895 -5.05917,3.117858 -5.70627,3.470823 -0.64711,0.352965 -10.471303,-0.05883 -10.471303,-0.05883 z"
       id="path4230-9"
       inkscape:connector-curvature="0"
       sodipodi:nodetypes="csssssssssssssssccssscc" />
    <path
       style="fill:#000000;fill-opacity:1;fill-rule:evenodd;stroke:none;stroke-width:1px;stroke-linecap:butt;stroke-linejoin:miter;stroke-opacity:1"
       d="m 45.404279,35.534622 c 1.774895,-0.495257 4.05794,-0.877731 6.7358,-1.621581 0,0 3.877097,-1.031774 6.486325,-1.372108 2.204452,-0.01214 5.209451,-1.201504 7.234748,-0.374211 l 0.748423,0.374211 0.124737,1.496845 -0.374212,0.374211 c -2.794529,1.09949 -4.076923,2.124324 -6.611062,3.991585 0,0 -3.492637,2.744215 -4.116322,5.114218 l -0.623685,2.370004 c 0.441322,2.530815 -2.561077,3.359222 -3.617374,1.746318 -1.090252,-1.623496 -2.484328,-3.549892 -4.116322,-4.365796 l -1.372108,-0.623685 c -1.815249,0.136771 -2.192244,0.402712 -3.367899,1.746318 -0.959553,1.609094 -0.771008,2.476326 -2.619478,2.245267 0,0 -1.24737,-0.748422 -2.12053,-2.494741 l -0.873159,-1.746318 c 0,0 -0.721008,-1.971117 -3.243163,-4.241059 -1.24737,-1.122634 -2.245266,-2.245267 -4.365796,-3.118426 -1.176257,-0.484341 -3.492637,-1.372107 -2.245266,-2.12053 1.24737,-0.748422 4.740007,-0.748422 6.860536,-0.124736 2.12053,0.623685 2.993689,2.370003 5.363693,3.118425 2.349528,0.134012 4.308136,-0.22388 6.112114,-0.374211 z"
       id="path4331"
       inkscape:connector-curvature="0"
       sodipodi:nodetypes="ccccccccsccccccscsssscc" />
    <path
       style="fill:#000000;fill-opacity:1;fill-rule:evenodd;stroke:none;stroke-width:1px;stroke-linecap:butt;stroke-linejoin:miter;stroke-opacity:1"
       d="m 67.732208,55.492547 c 1.122633,0.997896 2.49474,1.995793 4.989481,1.621582 2.494741,-0.374212 2.619478,-0.374212 2.619478,-0.374212 0,0 1.746318,-0.997896 1.496844,-1.871055 -0.249474,-0.873159 -0.498948,-1.122633 -0.498948,-1.122633 0,0 -1.746318,-1.372108 -2.868952,-1.496845 -1.122633,-0.124737 -1.24737,-0.124737 -1.24737,-0.124737 0,0 -3.866848,-0.124737 -5.114218,0.124737 l -1.247371,0.249474 c -3.406119,1.100704 1.101912,2.360722 1.871056,2.993689 z"
       id="path4333"
       inkscape:connector-curvature="0"
       sodipodi:nodetypes="cscscscscc" />
    <path
       style="fill:none;fill-rule:evenodd;stroke:#000000;stroke-width:1;stroke-linecap:round;stroke-linejoin:miter;stroke-miterlimit:4;stroke-dasharray:none;stroke-opacity:1"
       d="m 58.127456,44.141477 c 1.871056,-1.496844 1.871056,-1.621581 1.871056,-1.621581 0,0 1.621581,-1.496844 3.991585,-2.370004 1.520205,-0.285297 4.565925,-0.22281 7.359485,-0.249474 3.511308,0.213975 4.611104,0.832552 6.985273,1.496845 l 0.997897,0.249474 2.49474,-0.249474"
       id="path4335"
       inkscape:connector-curvature="0"
       sodipodi:nodetypes="ccccccc" />
    <path
       style="fill:#000000;fill-opacity:1;fill-rule:evenodd;stroke:none;stroke-width:1px;stroke-linecap:butt;stroke-linejoin:miter;stroke-opacity:1"
       d="m 61.994304,44.266214 c 2.12053,-0.873159 4.490533,-1.24737 4.490533,-1.24737 l 3.243163,0 c 3.243163,0 11.135617,1.853886 9.230541,1.746319 -1.554593,-0.08778 1.947283,-0.01386 2.993688,0 0,0 -1.621581,2.619477 -2.619477,3.367899 -0.997897,0.748423 -3.118426,0.87316 -5.613167,0.748423 -2.49474,-0.124738 -8.232644,-0.87316 -10.228436,-0.498949 -1.038328,0.195889 -1.974174,0.521864 -2.993689,0.748423 -0.86102,0.191338 -2.245267,-2.494741 -2.245267,-2.494741 l 0,0 c 1.400719,-1.679886 2.612258,-1.90578 3.742111,-2.370004 z"
       id="path4337"
       inkscape:connector-curvature="0"
       sodipodi:nodetypes="ccsscssccccc" />
    <path
       style="fill:none;fill-rule:evenodd;stroke:#000000;stroke-width:1px;stroke-linecap:butt;stroke-linejoin:miter;stroke-opacity:1"
       d="m 55.623121,84.996643 -19.265054,0.09444"
       id="path4339"
       inkscape:connector-curvature="0" />
    <path
       style="fill:none;fill-rule:evenodd;stroke:#000000;stroke-width:2;stroke-linecap:round;stroke-linejoin:round;stroke-miterlimit:4;stroke-dasharray:none;stroke-opacity:1"
       d="m 30.503002,89.718469 c 0,0 2.644222,-2.360913 4.249644,-3.777461 1.605421,-1.416548 2.549786,-2.549787 3.116406,-3.305279 l 0.566619,-0.755492 c 0,0 1.326977,-1.184251 2.360913,-1.322112 1.725632,-0.25015 3.237,0.783554 5.005137,0.755489 2.152815,-0.03768 4.70586,-1.116616 6.516121,-0.472179 1.319023,1.369696 2.608257,2.362215 3.399715,3.399715 0.661056,1.038802 2.077604,2.266477 2.077604,2.266477 0,0 1.510985,1.322112 2.077604,1.699858 l 0.566619,0.377746 1.605421,1.510985"
       id="path4341"
       inkscape:connector-curvature="0"
       sodipodi:nodetypes="cssccccccscc" />
    <path
       style="fill:#000000;fill-opacity:1;fill-rule:evenodd;stroke:none;stroke-width:1px;stroke-linecap:butt;stroke-linejoin:miter;stroke-opacity:1"
       d="m 32.391732,89.529596 c 0,0 1.222049,0.203339 2.587158,0.724146 1.713181,0.653602 4.117837,1.070149 4.117837,1.070149 2.945284,0.05521 5.235924,0.193327 6.945305,0.09162 0.659614,-0.03925 5.736796,-0.130876 6.779339,-0.09725 2.416555,0.105954 4.820721,0.05461 6.556306,-0.140255 0.661055,-0.188873 1.628326,-0.51518 1.628326,-0.51518 0,0 -5.339885,4.512861 -6.378687,5.36279 -1.038801,0.849932 -3.537149,0.775588 -3.537149,0.775588 l -9.254781,0 c -1.628894,-0.500292 -2.711993,0.08468 -3.448341,-1.388016 0,0 -1.494632,-2.451784 -2.838722,-3.522684 -1.457611,-1.161347 -3.156591,-2.360914 -3.156591,-2.360914 z"
       id="path4343"
       inkscape:connector-curvature="0"
       sodipodi:nodetypes="cscscccscccsc" />
    <path
       style="fill:none;fill-rule:evenodd;stroke:#000000;stroke-width:1px;stroke-linecap:butt;stroke-linejoin:miter;stroke-opacity:1"
       d="m 60.658082,88.860873 c 0.168357,-0.988315 0.20383,-2.345919 0.143062,-3.004292 -0.04476,-2.648901 -0.809505,-4.581872 -2.074391,-6.795422 -1.206729,-2.111776 -2.861231,-3.075822 -4.220315,-3.433476 -1.359084,-0.357654 -4.220315,0.357654 -4.220315,0.357654 -1.778674,0.713576 -3.871767,0.412232 -5.865522,0.643776 -1.343025,0.08042 -3.867981,-0.230589 -5.007154,-0.572246 -0.429184,-0.07153 -2.86123,-0.143062 -4.005722,0.9299 -1.170495,1.033915 -2.133093,3.111413 -2.432045,3.934192 -0.541333,1.578774 -0.357654,3.347435 -0.357654,6.223175"
       id="path4345"
       inkscape:connector-curvature="0"
       sodipodi:nodetypes="cccscccccc" />
    <path
       style="fill:#000000;fill-opacity:1;fill-rule:evenodd;stroke:none;stroke-width:1px;stroke-linecap:butt;stroke-linejoin:round;stroke-opacity:1"
       d="m 35.479256,73.410229 c 0,0 -0.214592,-1.430615 0.500715,-2.217454 0.715308,-0.786838 0.786839,-0.786838 0.786839,-0.786838 0,0 1.573676,-0.858369 3.361945,-1.072961 2.409524,-0.134567 3.544096,1.626484 5.364807,1.716738 1.359085,0 2.432046,-1.072961 3.648069,-1.359084 1.216023,-0.286123 3.243176,-0.215576 4.506438,0.07153 2.792533,0.620984 4.682988,1.961892 3.862661,4.6495 0,0 -1.931331,-1.645208 -2.861231,-1.8598 -0.9299,-0.214593 -2.038972,0.05081 -3.290414,0.500715 -0.875069,0.314594 -1.8598,1.502146 -3.075823,2.288984 -0.469046,0.3035 -2.612098,0.31737 -3.004292,0.143062 0,0 -1.931331,-0.572246 -2.575108,-1.144492 -0.643776,-0.572247 -2.86123,-1.573677 -2.86123,-1.573677 l -1.216023,-0.07153 c -1.216022,-0.07153 -3.147353,0.715308 -3.147353,0.715307 z"
       id="path4349"
       inkscape:connector-curvature="0"
       sodipodi:nodetypes="cscccsccssssscsc" />
    <path
       style="fill:#000000;fill-opacity:1;fill-rule:evenodd;stroke:none;stroke-width:1px;stroke-linecap:butt;stroke-linejoin:miter;stroke-opacity:1"
       d="m 40.200286,60.749285 c 0,0 0.429185,1.93133 0.143062,2.575107 l -0.286123,0.643777 c 0,0 -1.430616,0.9299 -2.002862,1.00143 -0.572246,0.07153 -0.07153,-0.786838 0.429185,-1.502145 0.691079,-1.021214 1.409715,-1.771885 1.716738,-2.718169 z"
       id="path4355"
       inkscape:connector-curvature="0"
       sodipodi:nodetypes="cscscc" />
    <path
       style="fill:#000000;fill-opacity:1;fill-rule:evenodd;stroke:none;stroke-width:1px;stroke-linecap:butt;stroke-linejoin:miter;stroke-opacity:1"
       d="m 51.788269,62.251431 c 0,0 -0.500715,1.859799 0.143061,2.145922 0.643777,0.286123 0.643777,0.286123 0.643777,0.286123 l 1.430615,-0.286123 c 0,0 -0.143061,-1.00143 -0.500715,-1.00143 -0.357654,0 -1.144492,-0.9299 -1.144492,-0.9299 z"
       id="path4357"
       inkscape:connector-curvature="0" />
  </g>
</svg>
